<svg width="14" height="8" viewBox="0 0 14 8" fill="none" xmlns="http://www.w3.org/2000/svg">
<path d="M0.616333 3.36642C0.327124 3.36642 0.0926737 3.60087 0.0926737 3.89008C0.0926736 4.17928 0.327124 4.41374 0.616333 4.41374L0.616333 3.36642ZM13.4139 4.26036C13.6184 4.05586 13.6184 3.7243 13.4139 3.51979L10.0814 0.187246C9.87689 -0.0172559 9.54532 -0.017256 9.34082 0.187246C9.13632 0.391747 9.13632 0.72331 9.34082 0.927812L12.3031 3.89008L9.34082 6.85234C9.13632 7.05684 9.13632 7.38841 9.34082 7.59291C9.54532 7.79741 9.87689 7.79741 10.0814 7.59291L13.4139 4.26036ZM0.616333 3.89008L0.616333 4.41374L13.0437 4.41374L13.0437 3.89008L13.0437 3.36642L0.616333 3.36642L0.616333 3.89008Z" fill="black"/>
</svg>
