<svg width="45" height="46" viewBox="0 0 45 46" fill="none" xmlns="http://www.w3.org/2000/svg">
<circle cx="22.6425" cy="23.1184" r="21.242" stroke="#322D2D" stroke-width="2.16"/>
<g clip-path="url(#clip0_5_429)">
<path d="M32.5225 23.5517L30.2548 17.139C29.2068 14.1761 26.5302 12.1087 23.4471 11.8005V10.1572H21.8438V11.8005C18.7608 12.1087 16.0841 14.1761 15.0361 17.139L12.7684 23.5516C12.3719 24.6729 12.1708 25.8482 12.1708 27.045C12.1708 32.8208 16.8697 37.5197 22.6455 37.5197C28.4213 37.5197 33.1202 32.8208 33.1202 27.045C33.1202 25.8482 32.9191 24.6729 32.5225 23.5517ZM22.6455 35.9164C17.7537 35.9164 13.774 31.9367 13.774 27.045C13.774 26.0308 13.9443 25.0354 14.2799 24.0862L16.5477 17.6736C17.4595 15.0957 19.91 13.3638 22.6455 13.3638C25.381 13.3638 27.8315 15.0957 28.7433 17.6736L31.011 24.0863C31.3467 25.0354 31.5169 26.0308 31.5169 27.045C31.5169 31.9367 27.5372 35.9164 22.6455 35.9164Z" fill="#322D2D"/>
<path d="M22.6482 21.3801C19.5245 21.3801 16.9833 23.9214 16.9833 27.045C16.9833 30.1686 19.5245 32.7099 22.6482 32.7099C25.7718 32.7099 28.3131 30.1686 28.3131 27.045C28.3131 23.9214 25.7718 21.3801 22.6482 21.3801ZM22.6482 31.1066C20.4086 31.1066 18.5865 29.2846 18.5865 27.045C18.5865 24.8055 20.4086 22.9834 22.6482 22.9834C24.8877 22.9834 26.7098 24.8055 26.7098 27.045C26.7098 29.2846 24.8877 31.1066 22.6482 31.1066Z" fill="#322D2D"/>
</g>
<defs>
<clipPath id="clip0_5_429">
<rect width="27.3625" height="27.3625" fill="white" transform="translate(8.96375 10.1572)"/>
</clipPath>
</defs>
</svg>
