<svg width="45" height="46" viewBox="0 0 45 46" fill="none" xmlns="http://www.w3.org/2000/svg">
<circle cx="22.5756" cy="23.1184" r="21.2419" stroke="#322D2D" stroke-width="2.1602"/>
<g clip-path="url(#clip0_5_437)">
<path d="M35.089 28.2578L32.1779 25.3467C35.5169 18.34 30.3847 10.1572 22.5732 10.1572C14.7753 10.1572 9.62273 18.326 12.9685 25.3467L10.0574 28.2578C9.24721 29.068 9.5917 30.4506 10.6903 30.7852L13.9239 31.7673L14.906 35.001C15.2392 36.0952 16.619 36.4467 17.4334 35.6338L21.6832 31.3841C22.2674 31.4325 22.859 31.4342 23.4632 31.3841L27.713 35.6338C28.5244 36.4453 29.9065 36.0974 30.2404 35.001L31.2225 31.7673L34.4561 30.7852C35.5564 30.4501 35.8978 29.0666 35.089 28.2578ZM16.3596 34.5595L15.3769 31.3259C15.2296 30.8399 14.8514 30.4617 14.3654 30.3139L11.1318 29.3317L13.7493 26.7142C15.1709 28.8244 17.3287 30.3994 19.8515 31.0677L16.3596 34.5595ZM14.8468 25.6166C11.031 19.5401 15.4705 11.6761 22.5732 11.6761C29.7333 11.6761 34.081 19.5946 30.2995 25.6165C26.7192 31.3266 18.4267 31.3258 14.8468 25.6166ZM30.781 30.3138C30.295 30.4617 29.9168 30.8399 29.769 31.3259L28.7868 34.5595L25.295 31.0676C27.8178 30.3993 29.9756 28.8243 31.3972 26.7141L34.0147 29.3316L30.781 30.3138Z" fill="#322D2D"/>
<path d="M22.571 13.1943C17.4888 13.1943 13.8146 18.1275 15.3069 23.0056C16.5783 27.1717 21.0883 29.3853 25.1227 27.9418C28.0611 26.8902 30.1653 24.079 30.1653 20.7886C30.1653 16.6011 26.7585 13.1943 22.571 13.1943ZM18.4752 25.2712C14.3744 21.5281 17.0721 14.7132 22.571 14.7132C26.3134 14.7132 29.1622 18.0806 28.571 21.7414C27.8272 26.4865 22.0516 28.5438 18.4752 25.2712Z" fill="#322D2D"/>
<path d="M24.8775 18.7346L21.53 21.2193L20.3704 19.9838C20.0834 19.6778 19.6028 19.6626 19.297 19.9497C18.9912 20.2367 18.9759 20.7173 19.263 21.0231L20.8856 22.7521C21.1497 23.0335 21.5825 23.0719 21.8919 22.8422L25.7827 19.9542C26.1195 19.7043 26.1898 19.2286 25.9399 18.8918C25.6899 18.555 25.2143 18.4847 24.8775 18.7346Z" fill="#322D2D"/>
<circle cx="22.5756" cy="20.9588" r="7.92072" fill="#F9F9F9"/>
<path d="M16.6139 20.5793C16.6139 21.3468 16.8469 22.1759 17.8063 22.1759C18.7313 22.1759 18.9437 21.5249 18.9575 21.1618H17.8131V20.3395H19.862V22.9365H19.0054V22.4843C18.6971 22.8269 18.2654 23.0119 17.7377 23.0119C16.1343 23.0119 15.6135 21.7922 15.6135 20.5519C15.6135 19.4075 16.1754 18.0645 17.82 18.0645C19.259 18.0645 19.7044 19.0718 19.7112 19.6816H18.7245C18.7108 19.339 18.4641 18.9005 17.7925 18.9005C17.0593 18.9005 16.6139 19.4829 16.6139 20.5793ZM23.0694 21.6277L24.0356 18.1399H25.5226V22.9365H24.5769V19.3664L23.5628 22.9365H22.576L21.5619 19.3664V22.9365H20.6163V18.1399H22.1032L23.0694 21.6277ZM30.0105 19.6816C30.0105 20.1133 29.8734 20.4902 29.6199 20.7712C29.3321 21.0932 28.873 21.292 28.3111 21.292H27.2901V22.9365H26.3444V18.1399H28.4687C29.3115 18.1399 30.0105 18.7155 30.0105 19.6816ZM29.0237 19.7091C29.0237 19.2979 28.8113 18.9553 28.1946 18.9553H27.2901V20.4765H28.174C28.8181 20.4765 29.0237 20.0996 29.0237 19.7091Z" fill="#322D2D"/>
</g>
<defs>
<clipPath id="clip0_5_437">
<rect width="25.9223" height="25.9223" fill="white" transform="translate(9.61584 10.1572)"/>
</clipPath>
</defs>
</svg>
