<svg width="52" height="52" viewBox="0 0 52 52" fill="none" xmlns="http://www.w3.org/2000/svg">
<path fill-rule="evenodd" clip-rule="evenodd" d="M44.8373 14.1758C44.7692 14.0454 44.6748 13.9305 44.56 13.8383C44.4452 13.7462 44.3125 13.6789 44.1704 13.6407C44.0283 13.6025 43.8798 13.5942 43.7343 13.6163C43.5887 13.6384 43.4494 13.6904 43.325 13.7691C43.2007 13.8478 43.094 13.9515 43.0117 14.0735C42.9294 14.1955 42.8734 14.3333 42.8471 14.4781C42.8208 14.6229 42.8248 14.7716 42.8589 14.9148C42.893 15.058 42.9564 15.1925 43.0452 15.3099C44.978 18.377 46.0531 21.9063 46.1584 25.5301C46.2636 29.1539 45.3953 32.7397 43.6438 35.9138C41.8923 39.088 39.3217 41.7344 36.1998 43.5774C33.0779 45.4205 29.5189 46.3927 25.8936 46.3928C20.8878 46.3981 16.06 44.5359 12.3544 41.1703L14.3146 39.2101C14.5435 39.452 14.8192 39.6449 15.1248 39.7773C15.4304 39.9096 15.7597 39.9786 16.0927 39.9802H35.6945C36.3524 39.9775 36.9841 39.7218 37.4587 39.2661C37.9232 38.7962 38.1847 38.1627 38.1867 37.502V19.7203C38.1859 19.4998 38.1175 19.2848 37.9907 19.1043L36.5906 17.0181L41.785 11.7676C41.885 11.6687 41.9643 11.5509 42.0184 11.4211C42.0725 11.2914 42.1004 11.1522 42.1004 11.0116C42.1004 10.8709 42.0725 10.7317 42.0184 10.602C41.9643 10.4722 41.885 10.3544 41.785 10.2555C37.9018 6.29392 32.6868 3.91406 27.1496 3.57666C21.6125 3.23926 16.1471 4.96831 11.8116 8.42907C7.47601 11.8898 4.57873 16.8361 3.68061 22.3104C2.7825 27.7846 3.94744 33.3974 6.9499 38.062C7.01801 38.1925 7.11245 38.3074 7.22724 38.3995C7.34204 38.4916 7.47469 38.5589 7.61682 38.5971C7.75895 38.6354 7.90746 38.6437 8.05297 38.6216C8.19848 38.5995 8.33783 38.5474 8.46219 38.4687C8.58656 38.39 8.69325 38.2864 8.77552 38.1643C8.85779 38.0423 8.91385 37.9045 8.94015 37.7597C8.96645 37.6149 8.96243 37.4662 8.92833 37.323C8.89423 37.1799 8.83081 37.0453 8.74206 36.9279C6.80922 33.8608 5.73416 30.3315 5.62887 26.7077C5.52358 23.0839 6.39192 19.4982 8.14342 16.324C9.89492 13.1499 12.4655 10.5035 15.5874 8.66042C18.7093 6.81739 22.2683 5.84519 25.8936 5.84509C30.8995 5.83975 35.7273 7.70197 39.4328 11.0676L35.2325 15.2679L33.9443 13.4338C33.8388 13.2983 33.7054 13.187 33.5533 13.1073C33.4012 13.0276 33.2337 12.9814 33.0623 12.9717H18.697C18.5236 12.9722 18.3529 13.0144 18.1994 13.0948C18.0458 13.1752 17.9139 13.2915 17.8149 13.4338L13.8245 19.1183C13.7196 19.3089 13.653 19.5182 13.6285 19.7343V36.8719L10.0722 40.4562C9.97227 40.5552 9.89297 40.6729 9.83885 40.8027C9.78472 40.9325 9.75686 41.0717 9.75686 41.2123C9.75686 41.3529 9.78472 41.4921 9.83885 41.6219C9.89297 41.7517 9.97227 41.8694 10.0722 41.9684C13.974 45.8402 19.1631 48.1424 24.6521 48.4367C30.141 48.7311 35.5466 46.9971 39.8401 43.5647C44.1336 40.1323 47.0152 35.2412 47.9367 29.8221C48.8581 24.4031 47.755 18.8344 44.8373 14.1758ZM15.7567 37.502V20.7844H28.0218V37.852H16.0927C16.0035 37.8452 15.9199 37.8057 15.8579 37.7411C15.7959 37.6765 15.7599 37.5914 15.7567 37.502ZM36.0305 37.502C36.0269 37.5961 35.987 37.6851 35.9191 37.7504C35.8512 37.8156 35.7607 37.8521 35.6665 37.852H30.164V20.0564L33.0903 15.856L36.0305 20.0564V37.502ZM19.229 15.0999H31.0321L28.5259 18.6562H16.7508L19.229 15.0999Z" fill="#322D2D"/>
<path fill-rule="evenodd" clip-rule="evenodd" d="M23.0914 17.9146C23.2997 17.9146 23.5033 17.8527 23.6763 17.7367C23.8493 17.6206 23.9838 17.4558 24.0629 17.2631C24.1419 17.0704 24.1619 16.8586 24.1202 16.6545C24.0786 16.4504 23.9771 16.2633 23.8289 16.1171C23.6806 15.9708 23.4922 15.8719 23.2876 15.833C23.083 15.794 22.8714 15.8168 22.6798 15.8985C22.4882 15.9801 22.3252 16.1169 22.2115 16.2914C22.0978 16.4659 22.0386 16.6703 22.0414 16.8785C22.045 17.1546 22.1573 17.4181 22.3538 17.612C22.5504 17.806 22.8154 17.9147 23.0914 17.9146Z" fill="#322D2D"/>
</svg>
