<svg width="46" height="46" viewBox="0 0 46 46" fill="none" xmlns="http://www.w3.org/2000/svg">
<circle cx="22.7093" cy="23.1184" r="21.242" stroke="#322D2D" stroke-width="2.16"/>
<g clip-path="url(#clip0_5_423)">
<path d="M31.783 10.6182C31.408 10.645 31.0598 10.8414 30.9259 11.1985C30.3008 12.8682 27.774 13.9665 25.1043 15.1183C20.0327 17.3148 13.1129 20.3059 15.0683 29.824C13.7379 31.2794 12.6575 33.1188 12.1307 35.6635C12.0325 36.1456 12.345 36.6188 12.8272 36.7171C12.8897 36.726 12.9522 36.7349 13.0057 36.7349C13.4165 36.7349 13.7915 36.4492 13.8808 36.0206C14.3094 33.967 15.1219 32.458 16.1755 31.2348C17.2916 31.9491 19.5952 33.1634 22.4703 33.1634C24.5239 33.1634 26.8722 32.5473 29.283 30.699C36.9885 24.7882 32.7831 11.7789 32.6045 11.2253C32.4973 10.8682 32.167 10.6182 31.783 10.6182ZM28.2115 29.2794C23.5328 32.8687 19.2738 31.0473 17.488 29.958C18.6041 29.0026 19.872 28.2168 21.1756 27.4222C23.7739 25.8239 26.4615 24.1721 27.6936 20.9756C27.8722 20.5113 27.6401 20.0023 27.1847 19.8238C26.7204 19.6452 26.2115 19.8773 26.0329 20.3327C25.015 22.9667 22.6935 24.3864 20.247 25.8954C19.0595 26.6275 17.8094 27.3954 16.6487 28.3418C15.6933 21.1452 20.8274 18.913 25.8275 16.7523C27.9972 15.8147 30.0776 14.9129 31.408 13.6093C32.2205 17.2344 33.3366 25.3418 28.2115 29.2794Z" fill="#322D2D"/>
</g>
<defs>
<clipPath id="clip0_5_423">
<rect width="27.3625" height="27.3625" fill="white" transform="translate(9.03064 10.1572)"/>
</clipPath>
</defs>
</svg>
