<svg width="45" height="46" viewBox="0 0 45 46" fill="none" xmlns="http://www.w3.org/2000/svg">
<circle cx="22.5087" cy="23.1184" r="21.2419" stroke="#322D2D" stroke-width="2.1602"/>
<g clip-path="url(#clip0_5_448)">
<path d="M35.0259 28.2578L32.1148 25.3467C35.4539 18.34 30.3216 10.1572 22.5101 10.1572C14.7122 10.1572 9.55968 18.326 12.9054 25.3467L9.99434 28.2578C9.18416 29.068 9.52865 30.4506 10.6272 30.7852L13.8608 31.7673L14.843 35.001C15.1762 36.0952 16.556 36.4467 17.3704 35.6338L21.6201 31.3841C22.2043 31.4325 22.796 31.4342 23.4002 31.3841L27.6499 35.6338C28.4614 36.4453 29.8434 36.0974 30.1773 35.001L31.1595 31.7673L34.3931 30.7852C35.4934 30.4501 35.8347 29.0666 35.0259 28.2578ZM16.2966 34.5595L15.3139 31.3259C15.1666 30.8399 14.7884 30.4617 14.3024 30.3139L11.0687 29.3317L13.6862 26.7142C15.1079 28.8244 17.2657 30.3994 19.7885 31.0677L16.2966 34.5595ZM14.7837 25.6166C10.968 19.5401 15.4074 11.6761 22.5101 11.6761C29.6702 11.6761 34.018 19.5946 30.2365 25.6165C26.6561 31.3266 18.3636 31.3258 14.7837 25.6166ZM30.718 30.3138C30.2319 30.4617 29.8537 30.8399 29.706 31.3259L28.7238 34.5595L25.232 31.0676C27.7548 30.3993 29.9125 28.8243 31.3342 26.7141L33.9517 29.3316L30.718 30.3138Z" fill="#322D2D"/>
<path d="M22.508 13.1943C17.4258 13.1943 13.7516 18.1275 15.2438 23.0056C16.5153 27.1717 21.0253 29.3853 25.0597 27.9418C27.998 26.8902 30.1022 24.079 30.1022 20.7886C30.1022 16.6011 26.6954 13.1943 22.508 13.1943ZM18.4122 25.2712C14.3113 21.5281 17.0091 14.7132 22.508 14.7132C26.2504 14.7132 29.0991 18.0806 28.5079 21.7414C27.7641 26.4865 21.9885 28.5438 18.4122 25.2712Z" fill="#322D2D"/>
<path d="M24.8144 18.7346L21.467 21.2193L20.3074 19.9838C20.0203 19.6778 19.5398 19.6626 19.2339 19.9497C18.9281 20.2367 18.9128 20.7173 19.1999 21.0231L20.8225 22.7521C21.0866 23.0335 21.5195 23.0719 21.8289 22.8422L25.7197 19.9542C26.0565 19.7043 26.1268 19.2286 25.8768 18.8918C25.6269 18.555 25.1512 18.4847 24.8144 18.7346Z" fill="#322D2D"/>
<circle cx="22.5087" cy="20.9588" r="7.92072" fill="#F9F9F9"/>
<path d="M20.3717 22.9365H19.2205L17.4046 19.5652V22.9365H16.459V18.1399H17.6581L19.4329 21.4838V18.1399H20.3717V22.9365ZM24.8148 21.4496C24.8148 22.5048 24.0473 23.0119 22.855 23.0119C21.786 23.0119 21.0186 22.498 20.9912 21.4221H21.9711C21.9711 21.9498 22.3068 22.2102 22.8961 22.2102C23.3004 22.2102 23.8623 22.1005 23.8623 21.5592C23.8623 20.7712 22.2383 21.1412 21.4777 20.4697C21.2516 20.2709 21.0734 19.9489 21.0734 19.4829C21.0734 18.5373 21.9162 18.0645 22.8413 18.0645C23.8006 18.0645 24.6572 18.4139 24.7326 19.5652H23.7595C23.7321 19.3048 23.6567 18.8457 22.8619 18.8457C22.3137 18.8457 22.0396 19.0718 22.0396 19.4144C22.0396 20.1339 23.273 19.9489 24.1021 20.3532C24.4927 20.5382 24.8148 20.8465 24.8148 21.4496ZM28.7294 18.9827H26.3448V20.2504H28.565V21.1069H26.3448V22.9365H25.3992V18.1399H28.7294V18.9827Z" fill="#322D2D"/>
</g>
<defs>
<clipPath id="clip0_5_448">
<rect width="25.9223" height="25.9223" fill="white" transform="translate(9.54498 10.1572)"/>
</clipPath>
</defs>
</svg>
