<svg width="39" height="39" viewBox="0 0 39 39" fill="none" xmlns="http://www.w3.org/2000/svg">
<path d="M32.5564 30.605L27.4215 25.4701C28.9777 23.4329 29.8312 20.9618 29.8315 18.3543C29.8315 15.212 28.6077 12.2575 26.3854 10.0356C24.1635 7.81368 21.2094 6.58984 18.0667 6.58984C14.9244 6.58984 11.9699 7.81368 9.74802 10.0356C5.16114 14.6229 5.16114 22.0865 9.74802 26.673C11.9699 28.8953 14.9244 30.1191 18.0667 30.1191C20.6742 30.1188 23.1453 29.2653 25.1825 27.709L30.3174 32.844C30.6263 33.1532 31.0318 33.3078 31.4369 33.3078C31.842 33.3078 32.2475 33.1532 32.5564 32.844C33.1749 32.2259 33.1749 31.2231 32.5564 30.605ZM11.9869 24.434C8.63474 21.0818 8.63512 15.6271 11.9869 12.2745C13.6109 10.651 15.7702 9.75651 18.0667 9.75651C20.3636 9.75651 22.5225 10.651 24.1465 12.2745C25.7704 13.8985 26.6649 16.0578 26.6649 18.3543C26.6649 20.6512 25.7704 22.8101 24.1465 24.434C22.5225 26.058 20.3636 26.9525 18.0667 26.9525C15.7702 26.9525 13.6109 26.058 11.9869 24.434Z" fill="#322D2D"/>
</svg>
