<svg width="16" height="15" viewBox="0 0 16 15" fill="none" xmlns="http://www.w3.org/2000/svg">
<path d="M7.73913 0.496279C7.85161 0.22585 8.23469 0.22585 8.34717 0.496279L10.1433 4.81457C10.1907 4.92858 10.2979 5.00647 10.421 5.01634L15.083 5.39009C15.3749 5.41349 15.4932 5.77783 15.2709 5.96837L11.7189 9.01098C11.6252 9.0913 11.5842 9.21735 11.6129 9.33744L12.698 13.8867C12.766 14.1716 12.456 14.3968 12.2061 14.2442L8.21479 11.8062C8.10942 11.7419 7.97689 11.7419 7.87152 11.8062L3.88022 14.2442C3.63027 14.3968 3.32035 14.1716 3.3883 13.8867L4.47347 9.33744C4.50213 9.21735 4.46117 9.0913 4.3674 9.01098L0.815479 5.96837C0.593044 5.77783 0.711426 5.41349 1.00337 5.39009L5.66534 5.01634C5.78841 5.00647 5.89563 4.92858 5.94305 4.81457L7.73913 0.496279Z" fill="#DEA453"/>
</svg>
